<?xml version="1.0" standalone="no"?>
<!DOCTYPE svg PUBLIC "-//W3C//DTD SVG 20010904//EN"
 "http://www.w3.org/TR/2001/REC-SVG-20010904/DTD/svg10.dtd">
<svg version="1.0" xmlns="http://www.w3.org/2000/svg"
 width="595.000000pt" height="509.000000pt" viewBox="0 0 595.000000 509.000000"
 preserveAspectRatio="xMidYMid meet">
<metadata>
Created by potrace 1.11, written by Peter Selinger 2001-2013
</metadata>
<g transform="translate(0.000000,509.000000) scale(0.100000,-0.100000)"
fill="#000000" stroke="none">
<path d="M2850 4920 c-634 -40 -1235 -316 -1670 -766 -287 -297 -500 -664
-603 -1042 l-26 -93 25 -9 c38 -15 37 -15 63 53 13 34 51 120 84 191 l61 128
86 -6 c131 -10 330 -38 330 -46 0 -4 -33 -77 -74 -161 -41 -85 -88 -188 -104
-229 l-30 -75 55 -29 c65 -35 128 -103 165 -177 l27 -54 1 73 0 72 33 0 c31 0
34 4 94 123 63 125 207 372 221 381 25 15 812 -210 812 -233 0 -3 -11 -24 -25
-46 -13 -22 -25 -43 -25 -46 0 -3 41 9 90 28 50 18 142 48 206 65 93 26 117
30 124 19 4 -8 11 -51 15 -96 6 -73 9 -84 30 -93 31 -14 35 2 35 138 l0 105
91 125 c115 157 247 314 386 459 l108 112 140 -69 c77 -38 189 -99 249 -136
60 -36 113 -66 118 -66 4 0 8 6 8 14 0 9 33 20 102 35 56 12 103 23 105 25 4
4 -184 151 -267 208 -36 25 -110 71 -164 103 l-100 58 40 34 c76 65 300 233
312 233 20 0 149 -81 260 -164 127 -95 344 -308 430 -424 34 -46 62 -87 62
-91 0 -4 -59 -63 -131 -131 l-130 -123 -34 33 c-19 19 -36 32 -38 29 -3 -2 -7
-130 -10 -283 l-6 -280 24 25 c13 13 71 128 128 254 57 127 135 291 173 367
l69 136 190 -72 189 -71 29 -105 c41 -151 240 -847 277 -964 16 -55 28 -101
26 -103 -2 -2 -55 17 -117 43 -63 26 -150 62 -194 80 -68 28 -81 37 -86 61 -6
27 -6 27 -10 -7 l-4 -35 -38 73 c-44 85 -173 302 -190 319 -7 6 -24 15 -38 18
-21 5 -27 2 -32 -14 -4 -16 12 -41 61 -99 36 -42 104 -128 151 -191 l85 -114
-2 -66 c-4 -86 -38 -321 -63 -436 -114 -514 -363 -969 -730 -1335 -100 -100
-328 -290 -347 -290 -4 0 -18 30 -30 68 -76 219 -253 495 -473 734 -43 47 -79
91 -79 97 0 6 22 71 49 144 97 264 217 503 367 735 63 96 76 111 91 103 32
-18 359 -333 489 -471 150 -159 247 -273 334 -390 67 -90 68 -85 13 50 -131
319 -334 619 -593 877 l-123 122 25 33 c14 18 60 73 102 122 42 48 76 91 76
93 0 6 -71 -3 -109 -13 l-23 -7 7 164 c4 92 3 160 -1 156 -5 -5 -32 -81 -59
-170 l-51 -162 -154 -41 c-177 -46 -162 -52 -180 63 -13 83 -30 106 -30 41 0
-24 -3 -73 -6 -109 -6 -59 -9 -67 -32 -75 -26 -9 -26 -9 25 -47 l52 -38 -64
-98 c-94 -145 -199 -334 -262 -473 -56 -124 -143 -371 -143 -408 0 -11 -2 -20
-5 -20 -3 0 -60 42 -128 93 -189 145 -346 245 -587 376 -127 70 -110 68 -268
32 l-82 -19 -5 22 c-2 11 -10 68 -16 126 -11 94 -14 101 -20 65 -4 -22 -8 -72
-8 -112 -1 -97 -4 -103 -56 -103 l-43 0 -31 -163 c-53 -281 -56 -305 -56 -517
1 -219 14 -341 61 -540 20 -86 101 -350 107 -350 1 0 2 127 2 282 0 182 5 317
13 378 42 297 153 769 179 763 41 -8 434 -250 606 -372 218 -155 288 -213 282
-236 -3 -11 -10 -93 -16 -182 -19 -250 7 -496 72 -698 46 -144 55 -146 51 -13
-4 125 11 349 34 491 22 141 46 247 56 247 5 0 103 -93 219 -207 199 -196 310
-316 379 -410 l31 -43 -83 -54 c-46 -29 -123 -74 -171 -100 -48 -25 -82 -46
-74 -46 24 0 249 69 347 106 614 236 1137 730 1391 1315 143 330 203 620 203
979 0 231 -13 353 -60 550 -229 970 -1027 1707 -2037 1880 -97 16 -411 43
-457 38 -8 0 -67 -4 -130 -8z m275 -410 c155 -17 449 -84 443 -100 -2 -4 -37
-35 -78 -70 -41 -35 -111 -99 -156 -142 l-80 -79 -105 30 c-218 61 -413 91
-636 100 l-163 6 115 127 115 127 63 4 c142 8 398 6 482 -3z m-1194 -218 l-91
-97 -112 -29 c-101 -25 -245 -75 -350 -120 -21 -9 -38 -14 -38 -11 0 13 260
174 365 226 91 45 284 124 313 129 2 0 -37 -44 -87 -98z m459 -243 c196 -18
490 -73 637 -120 l32 -10 -105 -125 c-112 -133 -282 -358 -365 -480 -27 -41
-53 -74 -57 -74 -4 0 -67 20 -140 44 -175 59 -382 112 -546 139 l-135 23 94
129 c52 72 159 211 238 310 l144 181 44 -3 c24 -2 96 -8 159 -14z m-742 -76
c-106 -125 -183 -229 -283 -381 l-87 -132 -54 0 c-72 0 -252 -26 -344 -50 -41
-10 -76 -17 -79 -15 -7 7 85 151 159 250 82 109 201 237 286 310 57 48 70 54
136 66 101 17 255 36 301 38 l38 1 -73 -87z"/>
<path d="M4160 3541 l-165 -36 -91 -319 c-54 -186 -94 -311 -97 -300 -3 10
-11 48 -17 84 -18 106 -104 450 -113 450 -8 0 -338 -121 -346 -127 -4 -3 -59
-915 -56 -921 2 -1 52 22 113 52 61 29 116 56 123 58 8 3 17 97 30 318 10 173
20 322 22 330 1 8 25 -117 52 -278 28 -162 53 -298 56 -303 3 -6 51 1 119 18
l113 29 102 327 c56 180 105 331 109 335 8 7 2 -262 -10 -508 l-5 -115 114 3
114 3 7 267 c3 147 9 358 12 470 6 169 5 202 -7 201 -8 -1 -88 -18 -179 -38z"/>
<path d="M4771 3458 c-17 -29 -65 -127 -106 -218 -213 -464 -272 -595 -271
-596 0 -1 57 -4 126 -8 l125 -7 58 130 58 130 67 -26 c37 -14 107 -40 157 -58
l90 -32 8 -49 c4 -27 19 -96 33 -154 l25 -105 117 -53 c148 -68 158 -71 148
-46 -6 14 -213 736 -286 995 -10 36 -12 37 -152 89 -79 29 -148 55 -155 57 -6
3 -25 -19 -42 -49z m212 -350 c20 -78 35 -143 33 -146 -4 -4 -176 56 -185 65
-6 5 101 223 110 223 3 0 22 -64 42 -142z"/>
<path d="M3032 3142 l-134 -77 -4 -185 c-5 -219 -22 -605 -30 -673 l-6 -48
140 70 140 70 6 188 c11 333 27 698 32 716 3 9 2 17 -3 17 -4 0 -68 -35 -141
-78z"/>
<path d="M2685 2983 c-55 -13 -296 -98 -337 -119 -126 -64 -228 -204 -228
-314 0 -99 27 -123 225 -205 106 -43 125 -58 125 -97 0 -71 -168 -147 -326
-148 l-50 0 14 -104 15 -103 96 23 c273 65 448 171 521 316 40 81 43 171 6
215 -31 37 -100 74 -202 107 -122 40 -153 82 -100 139 46 49 176 96 269 97 43
0 42 -3 25 118 -6 47 -16 82 -22 81 -6 -1 -20 -3 -31 -6z"/>
<path d="M506 2756 c-5 -178 -16 -405 -30 -644 -1 -21 11 -28 119 -67 66 -24
120 -43 121 -42 1 1 7 159 13 351 7 193 13 351 14 353 2 1 33 -7 71 -18 92
-28 127 -61 133 -126 5 -42 2 -54 -16 -72 -25 -25 -67 -27 -118 -6 -19 8 -37
15 -38 15 -2 0 1 -17 5 -37 5 -21 13 -63 20 -94 11 -55 13 -58 59 -78 99 -42
212 -43 270 -2 16 11 38 44 51 72 18 43 21 66 18 133 -4 100 -36 175 -103 241
-57 58 -97 76 -366 168 l-216 73 -7 -220z"/>
<path d="M1910 2753 c-14 -1 -157 -14 -319 -28 -162 -13 -295 -26 -296 -27 -2
-2 -8 -129 -15 -283 -6 -154 -18 -350 -25 -435 -7 -85 -12 -156 -10 -158 1 -2
135 8 296 22 162 15 326 29 365 32 l71 6 6 92 c3 50 4 93 2 94 -2 2 -89 -6
-194 -17 -236 -26 -265 -27 -257 -5 3 9 6 44 6 79 l0 62 38 7 c20 3 105 11
187 18 83 6 152 13 155 15 2 2 7 47 10 99 l5 95 -25 -5 c-14 -3 -79 -10 -145
-16 -66 -6 -139 -12 -162 -15 l-43 -5 0 80 c0 44 3 80 8 80 4 0 75 7 157 15
83 8 180 15 216 15 l66 0 7 61 c3 34 6 77 6 95 0 33 -1 34 -42 33 -24 -1 -54
-4 -68 -6z"/>
<path d="M2057 2273 c-25 -75 -44 -140 -40 -143 3 -3 8 1 10 8 3 8 28 12 77
12 141 0 273 39 295 87 6 14 10 26 9 27 -2 1 -55 23 -118 49 -63 26 -129 58
-145 72 -17 13 -33 24 -36 25 -3 0 -27 -62 -52 -137z"/>
<path d="M1188 2276 c-10 -13 -37 -33 -61 -45 -53 -25 -159 -28 -233 -6 -33
10 -52 11 -59 4 -15 -15 -13 -495 3 -604 34 -235 90 -435 168 -602 23 -51 45
-93 47 -93 2 0 -2 34 -9 76 -37 214 -40 496 -8 773 13 117 59 364 70 382 3 5
28 0 56 -11 29 -11 53 -18 54 -17 8 7 6 161 -2 164 -5 1 -17 -8 -26 -21z"/>
</g>
</svg>
